<svg xmlns="http://www.w3.org/2000/svg" width="191.1" height="45.692" viewBox="0 0 191.1 45.692">
  <g id="bg_pic5" transform="translate(-21.577 -38.414)">
    <g id="그룹_32" data-name="그룹 32" transform="translate(21.577 38.414)">
      <g id="그룹_25" data-name="그룹 25">
        <path id="패스_76" data-name="패스 76" d="M60.478,43.113c3.84,0,6.637,0,6.637,6.646,0,6.426-2.414,6.591-5.458,6.591H59.6V43.113ZM55.2,39.73v20h7.433c1.26,0,4.523,0,6.526-2.233a11.131,11.131,0,0,0,2.5-7.569c0-3.91-.989-5.756-1.645-6.813C67.9,39.73,64.662,39.73,62.437,39.73Z" transform="translate(6.867 -39.366)" fill="#fff"/>
        <path id="패스_77" data-name="패스 77" d="M64.234,39.73H68.64v20H64.234Z" transform="translate(18.276 -39.366)" fill="#fff"/>
        <path id="패스_78" data-name="패스 78" d="M38.232,59.728a5.847,5.847,0,0,0,3.81-10.3,5.846,5.846,0,0,0-4.412-9.7H27.769V59.723ZM36.689,43.151a2.434,2.434,0,1,1,0,4.867H32.17V43.151Zm.6,13.155H32.17V51.44h5.121a2.434,2.434,0,1,1,0,4.867Z" transform="translate(-27.769 -39.366)" fill="#fff"/>
        <path id="패스_79" data-name="패스 79" d="M45.611,39.73h4.46l7.978,13.352h.057V39.73H62.4v20H57.8L49.96,46.686h-.054V59.728H45.611Z" transform="translate(-5.24 -39.366)" fill="#fff"/>
        <path id="패스_80" data-name="패스 80" d="M50.634,59.728h4.673l-7.29-20H43l-7.293,20h4.679l1.575-4.715h7.1Zm-7.546-8.091L45.507,44.4l2.419,7.241Z" transform="translate(-17.748 -39.366)" fill="#fff"/>
        <path id="패스_81" data-name="패스 81" d="M74.683,39.73h4.4V56.35H88.5v3.378H74.683Z" transform="translate(31.47 -39.366)" fill="#fff"/>
        <path id="패스_82" data-name="패스 82" d="M89.518,60.048c3.892,0,5.729-1.174,6.908-2.8,1.086-1.491,1.127-3.5,1.127-5.867V39.715h-4.4V51.809a6.177,6.177,0,0,1-.645,3.519,3.544,3.544,0,0,1-2.991,1.38h0a3.535,3.535,0,0,1-2.987-1.38,6.122,6.122,0,0,1-.645-3.519V39.715H81.481V51.382c0,2.362.043,4.376,1.129,5.867C83.793,58.873,85.626,60.048,89.518,60.048Z" transform="translate(40.054 -39.385)" fill="#fff"/>
        <path id="패스_83" data-name="패스 83" d="M100.117,39.73h4.4v20h-4.4Z" transform="translate(63.586 -39.366)" fill="#fff"/>
        <path id="패스_84" data-name="패스 84" d="M90.642,39.73H95.1l7.981,13.352h.054V39.73h4.295v20h-4.6l-7.84-13.042h-.057V59.728H90.642Z" transform="translate(51.622 -39.366)" fill="#fff"/>
        <path id="패스_85" data-name="패스 85" d="M116.917,54.505c0,1.2-.919,2.6-3.3,2.6a4.355,4.355,0,0,1-2.81-.982,3.913,3.913,0,0,1-1.179-2.5H105a7.715,7.715,0,0,0,2.767,5.13,9.026,9.026,0,0,0,5.639,1.735,9.931,9.931,0,0,0,4.924-1.088,5.678,5.678,0,0,0,3.009-5.157,5.422,5.422,0,0,0-3.08-5.152A23.2,23.2,0,0,0,114.2,47.6a9.5,9.5,0,0,1-3.333-1.328,1.837,1.837,0,0,1-.622-1.344c0-1.464,1.507-2.052,2.98-2.052a4.208,4.208,0,0,1,2.453.749,2.839,2.839,0,0,1,1.05,2h4.29a6.1,6.1,0,0,0-2.265-4.331,8.969,8.969,0,0,0-5.555-1.726,9.688,9.688,0,0,0-3.887.7,5.446,5.446,0,0,0-2.473,2.052,5.326,5.326,0,0,0-.853,2.894,5.192,5.192,0,0,0,1.874,3.971,11.68,11.68,0,0,0,4.885,2.222c2.439.658,4.175,1.378,4.175,3.1Z" transform="translate(69.757 -39.569)" fill="#fff"/>
        <g id="그룹_23" data-name="그룹 23" transform="translate(88.349 0.365)">
          <path id="패스_86" data-name="패스 86" d="M66.814,59.728h.866l15.5-20h-.862Z" transform="translate(-66.814 -39.73)" fill="#fff"/>
        </g>
        <g id="그룹_24" data-name="그룹 24" transform="translate(169.166 0.365)">
          <path id="패스_87" data-name="패스 87" d="M109.467,39.73H108.6l-6.072,7.831h.864Z" transform="translate(-102.531 -39.73)" fill="#fff"/>
        </g>
      </g>
      <g id="그룹_31" data-name="그룹 31" transform="translate(58.808 32.432)">
        <path id="패스_88" data-name="패스 88" d="M67.774,54.009a2.936,2.936,0,0,1,2.007.643,3.025,3.025,0,0,1,.93,2.3v.02a2.768,2.768,0,0,1-2.942,2.987h-.043a2.957,2.957,0,0,1-2.012-.645,3.038,3.038,0,0,1-.928-2.3,2.777,2.777,0,0,1,2.942-3Zm0,.579h-.043c-1.224.007-1.926.88-1.926,2.4a2.484,2.484,0,0,0,.765,2.027,1.8,1.8,0,0,0,1.163.367h.041c1.224-.007,1.926-.882,1.926-2.4v-.014a2.449,2.449,0,0,0-.763-2.009A1.8,1.8,0,0,0,67.769,54.588Z" transform="translate(-39.834 -53.768)" fill="#fff"/>
        <path id="패스_89" data-name="패스 89" d="M68.473,56.259H70.81l.261-.612H68.3" transform="translate(-35.392 -51.7)" fill="#fff"/>
        <path id="패스_90" data-name="패스 90" d="M59.6,54.328l.154.774v4.711c0,.935.532,1.747,2.322,1.747h2.7c1.276,0,2.914-.382,3.5-1.337l-.079-.176a5.79,5.79,0,0,1-3.383.916H62.122c-1.066,0-1.446-.5-1.446-1.2v-4.82h4.876l.26-.613Z" transform="translate(-46.387 -53.365)" fill="#fff"/>
        <g id="그룹_26" data-name="그룹 26" transform="translate(51.027 0.701)">
          <path id="패스_91" data-name="패스 91" d="M84.39,60.192a5.8,5.8,0,0,1-3.385.916h-2.17c-1.084,0-1.446-.5-1.446-1.2v-5.7l-1.079,0,.156.772v4.973c0,.935.529,1.747,2.322,1.747h2.177c1.278,0,2.914-.382,3.5-1.337Z" transform="translate(-76.31 -54.212)" fill="#fff"/>
        </g>
        <path id="패스_92" data-name="패스 92" d="M74.58,61.418h-6.1c-1.265,0-1.446-.5-1.446-1.2V57.8l-1.077,0,.154.774v1.693c0,.935.321,1.749,2.113,1.749H74.4Z" transform="translate(-38.354 -48.981)" fill="#fff"/>
        <path id="패스_93" data-name="패스 93" d="M63.255,61.418h-6.1c-1.267,0-1.446-.5-1.446-1.2V57.8l-1.079,0,.154.774v1.693c0,.935.324,1.749,2.116,1.749h6.177Z" transform="translate(-52.654 -48.981)" fill="#fff"/>
        <path id="패스_94" data-name="패스 94" d="M79.918,54.563v12.6h.924V53.9h-1.1l.181.661" transform="translate(-20.957 -53.902)" fill="#fff"/>
        <path id="패스_95" data-name="패스 95" d="M63.443,54.563v12.6h.926V53.9h-1.1l.179.661" transform="translate(-41.757 -53.902)" fill="#fff"/>
        <path id="패스_96" data-name="패스 96" d="M68.222,54.563v8.523h.924V53.9h-1.1l.181.661" transform="translate(-35.725 -53.902)" fill="#fff"/>
        <path id="패스_97" data-name="패스 97" d="M60.961,57.97H58.849V53.9h-1.1l.181.661v8.523h.924V58.569h1.94Z" transform="translate(-48.727 -53.902)" fill="#fff"/>
        <path id="패스_98" data-name="패스 98" d="M69.334,54.563v8.523h.924V53.9h-1.1l.181.661" transform="translate(-34.322 -53.902)" fill="#fff"/>
        <g id="그룹_27" data-name="그룹 27" transform="translate(37.893 7.955)">
          <path id="패스_99" data-name="패스 99" d="M70.769,58.012H76.11v4.711h.924V58.012H82.4v-.594h-11.9Z" transform="translate(-70.506 -57.418)" fill="#fff"/>
        </g>
        <path id="패스_100" data-name="패스 100" d="M92.678,58.81H81.395l-.263-.6H92.678Z" transform="translate(-19.195 -48.458)" fill="#fff"/>
        <g id="그룹_30" data-name="그룹 30" transform="translate(62.562 0.239)">
          <g id="그룹_28" data-name="그룹 28">
            <path id="패스_101" data-name="패스 101" d="M87.024,54.492a5.77,5.77,0,0,1-1.833,3.317,8.412,8.412,0,0,1-3.385,2.036l-.4-.407A7.827,7.827,0,0,0,86.1,54.723h0l-.179-.715h1.1Z" transform="translate(-81.408 -54.008)" fill="#fff"/>
          </g>
          <g id="그룹_29" data-name="그룹 29" transform="translate(4.844 0.898)">
            <path id="패스_102" data-name="패스 102" d="M83.549,54.636a8.348,8.348,0,0,0,1.695,2.675A9.86,9.86,0,0,0,88.3,59.433l.7-.645A7.927,7.927,0,0,1,84.013,54.4h0" transform="translate(-83.549 -54.405)" fill="#fff"/>
          </g>
        </g>
        <path id="패스_103" data-name="패스 103" d="M79.455,57.264v-3.27H71.282l.262.615h6.987v2.059H71.223l.154.772v.783c0,.935.324,1.749,2.116,1.749H79.67l.174-.6h-6.1c-1.269,0-1.446-.5-1.446-1.2v-.905Z" transform="translate(-31.707 -53.787)" fill="#fff"/>
        <path id="패스_104" data-name="패스 104" d="M59.9,60.539V54.109H58.837l.131.692v1.652H54.838V54.1H53.759l.154.772v3.921c0,.932.529,1.747,2.324,1.747Zm-3.614-.6c-1.265,0-1.444-.5-1.444-1.206V57.066h4.129v2.878Z" transform="translate(-53.759 -53.65)" fill="#fff"/>
      </g>
    </g>
  </g>
</svg>
