<svg xmlns="http://www.w3.org/2000/svg" width="177.474" height="57.164" viewBox="0 0 177.474 57.164">
  <g id="bg_pic9" transform="translate(-73.556 -52.244)">
    <path id="패스_140" data-name="패스 140" d="M203.472,52.244h-6.764v6.74l21.858,21.834L199.512,99.864h-87.6V53.346l-1.143-1.1h-7.252L88,64.383v6.8h6.826l7.517-5.878v42.982l1.109,1.1.024.015h100l28.591-28.59Z" transform="translate(18.967 0)" fill="#fff"/>
    <path id="패스_141" data-name="패스 141" d="M89.034,52.244h0L73.556,64.383v6.8h6.78l7.53-5.878v42.982l1.1,1.1.025.015H96.3l1.125-1.117V53.346l-1.125-1.1Z" transform="translate(0 0)" fill="#fff"/>
    <path id="패스_142" data-name="패스 142" d="M115.52,53.843h4.69l.379.414v6.212l.416.4h5.048l.414-.4V52.628l.41-.384h4.694l.414.384V77.36l-.414.407h-4.694l-.41-.407V65.982l-.414-.4h-5.048l-.416.4v5.932l-.379.4H103.174l-.41-.4V54.257l.41-.414h4.7l.382.414V58.2l.416.4h6.043l.416-.4V54.257Zm-.807,9.238h-6.043l-.416.391v3.8l.416.4h6.043l.416-.4v-3.8Zm-6.46,12.579.416-.4h4.8l.4.4v6.86l.407.407h17.178l2.427,2.381-2.427,2.381H108.669l-.416-.4Z" transform="translate(38.368 0)" fill="#fff"/>
    <path id="패스_143" data-name="패스 143" d="M129.916,59.319H119.23l-.407-.4V54.849l.407-.4h16.2l.423.4V65.022a15.821,15.821,0,0,1-.095,1.8,4.936,4.936,0,0,1-.352,1.485,5.685,5.685,0,0,1-.782,1.263,8.488,8.488,0,0,1-1.231,1.247c-1.756,1.427-3.616,2.857-5.56,4.28-1.978,1.418-3.9,2.792-5.828,4.072h-3.986V75.227c1.86-1.261,3.739-2.57,5.68-3.88,1.909-1.309,3.672-2.619,5.245-3.915a3.559,3.559,0,0,0,1.08-1.268,3.941,3.941,0,0,0,.287-1.6V59.735Zm16.9-6.691V63.449l.4.4h4.28l.4.407v3.993l-.4.4h-4.28l-.4.4V87.688l-.41.4h-4.724l-.4-.4V52.628l.4-.384H146.4Z" transform="translate(58.4 0)" fill="#fff"/>
  </g>
</svg>
