<svg xmlns="http://www.w3.org/2000/svg" width="188.44" height="42.589" viewBox="0 0 188.44 42.589">
  <g id="bg_pic10" transform="translate(-25.579 -58.297)">
    <path id="패스_150" data-name="패스 150" d="M47.418,63.986l-3.764,3.2a6.3,6.3,0,0,0-5.679-3.737c-4.16,0-6.636,1.579-6.636,6.242v6.5c0,1.752.72,6.371,5.438,6.371a8,8,0,0,0,6.8-3.678l4,3.039a12.3,12.3,0,0,1-10.636,5.76c-7.5,0-11.361-5.423-11.361-10.833,0-4.738.162-3.855.162-8.464S29.41,59.2,35.418,58.57,45.8,60.84,47.418,63.986Z" transform="translate(0 0.222)" fill="#4b211d" fill-rule="evenodd"/>
    <path id="패스_151" data-name="패스 151" d="M49.494,58.742h5.677S55.09,71.6,55.09,74.819s1.259,7.6,5.6,7.6,6.082-2,6.082-7.444V58.9h5.675V87.224H67.572V84.658a13.786,13.786,0,0,1-8.32,2.881A10.113,10.113,0,0,1,49.494,77.3C49.494,71.377,49.411,58.742,49.494,58.742Z" transform="translate(28.4 0.529)" fill="#4b211d" fill-rule="evenodd"/>
    <path id="패스_152" data-name="패스 152" d="M110.448,87.544h-5.677s.081-12.863.081-16.079-1.255-7.6-5.6-7.6-6.078,3-6.078,8.144V87.384H87.5V59.067h4.88v2.562s1.552-3.08,7.715-2.881,10.358,4.315,10.358,10.24S110.532,87.544,110.448,87.544Z" transform="translate(73.641 0.524)" fill="#c6c200" fill-rule="evenodd"/>
    <path id="패스_153" data-name="패스 153" d="M46.648,58.487h2.925a9.861,9.861,0,0,1,9.817,9.85V77.67a9.861,9.861,0,0,1-9.817,9.85H46.648a9.865,9.865,0,0,1-9.817-9.85V68.337a9.865,9.865,0,0,1,9.817-9.85Zm.405,4.957c-2.717,0-4.941,2.728-4.941,6.058v7.006c0,3.328,2.224,6.054,4.941,6.054H49.33c2.719,0,4.941-2.726,4.941-6.054V69.5c0-3.33-2.222-6.058-4.941-6.058Z" transform="translate(13.383 0.226)" fill="#4b211d" fill-rule="evenodd"/>
    <path id="패스_154" data-name="패스 154" d="M62.48,59.053V98.731h6.161v-13.2s1.27,2,6.877,2,10.24-4.8,10.24-9.76V68.253c0-2.8-2.389-9.287-8.72-9.6s-8.245,1.355-9.114,3.041V58.972l-5.443.081Zm10.612,4.239H75.9c2.717,0,4.941,2.728,4.941,6.058v7.006c0,3.328-2.224,6.054-4.941,6.054H73.092c-2.717,0-4.944-2.726-4.944-6.054V69.35C68.148,66.02,70.375,63.292,73.092,63.292Z" transform="translate(43.889 0.377)" fill="#dc0022" fill-rule="evenodd"/>
    <path id="패스_155" data-name="패스 155" d="M76.575,61.351l2.316,3.84a10.388,10.388,0,0,1,6.96-1.517c4.479.4,5.522,3.437,5.443,6.076,0,0-2.082-1.6-6.483-1.6s-8.639,2.877-9.517,6.4-.8,11.757,6.24,13.117,10.319-2.481,10.319-2.481v2.64h4.8V67.667c0-10.065-13.99-11.772-20.079-6.316Zm8.556,11.385h.725a4.8,4.8,0,0,1,4.79,4.79v.961a4.806,4.806,0,0,1-4.79,4.793h-.725a4.8,4.8,0,0,1-4.79-4.793v-.961A4.8,4.8,0,0,1,85.131,72.736Z" transform="translate(58.672 0)" fill="#ffac2d" fill-rule="evenodd"/>
    <path id="패스_156" data-name="패스 156" d="M118.158,60.851a6.3,6.3,0,0,1,7.234-1.749l.077,4.239a4.85,4.85,0,0,0-4.666.9,10.288,10.288,0,0,1,1,4.449h0c0,5.452-4.215,9.911-9.368,9.911-3.288,0-4.37.219-7.319,4.394-.46.885.361.528.361.528,1.813-1.055,7.774-1.476,11.632-.718a9.475,9.475,0,0,1,7.783,8.74c.136,4.661-7.013,8.935-7.013,8.935l-2.443-4.083c2.354-2.354,5.473-3.939,2.489-7.207s-10.319-1.487-13.758-.718-4.2-2.973-3.893-5.8,3.041-4.856,4.114-5.618a10.072,10.072,0,0,1-4.359-8.363h0c0-5.452,4.217-9.909,9.368-9.909h3.037a9.02,9.02,0,0,1,5.721,2.073Zm-7.65,2.456a5.352,5.352,0,0,0-5.587,5.04v1.014a5.348,5.348,0,0,0,5.587,5.038h.847a5.35,5.35,0,0,0,5.592-5.038V68.348a5.353,5.353,0,0,0-5.592-5.04Z" transform="translate(88.552 0.41)" fill="#47b3e1" fill-rule="evenodd"/>
  </g>
</svg>
