<svg id="bg_pic3" xmlns="http://www.w3.org/2000/svg" width="161.9" height="114.5" viewBox="0 0 161.9 114.5">
  <g id="그룹_17" data-name="그룹 17">
    <g id="그룹_16" data-name="그룹 16">
      <path id="패스_61" data-name="패스 61" d="M70.4,49.4a13.681,13.681,0,0,0-9.8,3.7c-2.7,2.7-4.2,6.8-4.2,11.7s1.5,9.1,4.2,11.7a13.353,13.353,0,0,0,9.8,3.7,13.516,13.516,0,0,0,9.8-3.7c2.6-2.6,4.1-6.8,4.1-11.7s-1.5-9.1-4.1-11.7A13.681,13.681,0,0,0,70.4,49.4ZM76,73.3h0a7.191,7.191,0,0,1-5.7,2.6,6.706,6.706,0,0,1-5.6-2.6c-1.4-1.8-2.2-4.8-2.2-8.5,0-3.8.8-6.7,2.2-8.5a6.913,6.913,0,0,1,5.6-2.5A7.26,7.26,0,0,1,76,56.3c1.4,1.8,2.2,4.8,2.2,8.5S77.5,71.5,76,73.3Z" fill="#fff"/>
      <path id="패스_62" data-name="패스 62" d="M146.7,53.1a14.828,14.828,0,0,0-19.6,0c-2.7,2.7-4.1,6.8-4.1,11.7s1.5,9.1,4.1,11.7a14.828,14.828,0,0,0,19.6,0c2.6-2.7,4.1-6.8,4.1-11.7S149.3,55.7,146.7,53.1Zm-4.2,20.2h0a7.133,7.133,0,0,1-5.6,2.6,6.706,6.706,0,0,1-5.6-2.6c-1.4-1.8-2.2-4.8-2.2-8.5,0-3.8.8-6.7,2.2-8.5a7.053,7.053,0,0,1,5.6-2.5,6.913,6.913,0,0,1,5.6,2.5c1.4,1.8,2.2,4.8,2.2,8.5S143.9,71.5,142.5,73.3Z" fill="#fff"/>
      <path id="패스_63" data-name="패스 63" d="M42.7,79.5a3,3,0,0,1-.7-2.1V66.8L52,50.1H45.2c.5.5.5,1.3-.1,2.2l-5.4,9.4c-4.5-8.2-4.5-8.5-5.4-10a2.455,2.455,0,0,0-2.4-1.6H26.5a12.291,12.291,0,0,1,1.8,2.5l8,14.1V77.5a3,3,0,0,1-.7,2.1h7.1Z" fill="#fff"/>
      <path id="패스_64" data-name="패스 64" d="M93.8,79.5a3,3,0,0,0,.7-2.1V52.1a3,3,0,0,0-.7-2.1h9.8c4.7,0,8.8,2.3,8.8,6.7a6.731,6.731,0,0,1-3,5.7,7.957,7.957,0,0,1,5.4,7.5,9.137,9.137,0,0,1-3.6,7.3,11.876,11.876,0,0,1-7.6,2.4H93.8Zm6.5-18.3a9.928,9.928,0,0,0,4.2-.5,3.23,3.23,0,0,0,2-3.1,3.528,3.528,0,0,0-3.8-3.3,6.606,6.606,0,0,0-2.4.3v6.6Zm6.4,13.4a4.689,4.689,0,0,0,2.1-4.3c0-3.2-2.8-4.7-5.6-4.7a15.677,15.677,0,0,0-2.9.2v9.5C102.2,75.7,105.2,75.5,106.7,74.6Z" fill="#fff"/>
      <path id="패스_65" data-name="패스 65" d="M.7,77.5A3,3,0,0,1,0,79.6H7.2a3,3,0,0,1-.7-2.1V65.9l8.4,12c.8,1.1,1.4,1.6,2.6,1.6h5.8A13.237,13.237,0,0,1,21.2,77L11.7,63.6,21.4,50H14.3c.4.5.4,1.1-.3,2.2L6.5,63.1v-11A3,3,0,0,1,7.2,50H0a3,3,0,0,1,.7,2.1Z" fill="#fff"/>
    </g>
    <path id="패스_66" data-name="패스 66" d="M160,9.6c-2.7-2.7-7.1-2.3-9.8.5-3.4,3.6-6.1,4.9-9.2,4.8-4.4-.2-6.6-3.6-8.9-7.9-2.4-4.5-6-7-10.5-7-7.1,0-11.4,5.8-11.4,12.2,0,9.9,6.9,15.8,11.7,18.3a28.253,28.253,0,0,0,12.4,3,33.068,33.068,0,0,1-1.7,7.7h8.2a35.937,35.937,0,0,1-1.7-7.9c11.9-1.5,17.6-7,20.7-12.1a13.065,13.065,0,0,0,2.1-6.7A6.71,6.71,0,0,0,160,9.6Zm-38.3,6.2a4.158,4.158,0,1,1,3.9-4.4A4.211,4.211,0,0,1,121.7,15.8Z" fill="#91e561"/>
  </g>
  <g id="그룹_22" data-name="그룹 22">
    <g id="그룹_18" data-name="그룹 18">
      <path id="패스_67" data-name="패스 67" d="M39.8,110.7V101H36.3v9.7H34V101H30.5v9.7H25.8v2.7H47.3v-2.7Z" fill="#fff"/>
      <path id="패스_68" data-name="패스 68" d="M41.8,108.1H44c.8-4.4,1.4-9.8,1.8-13.5.2-2,.2-3-1.6-3H28.1v2.7H41.8Z" fill="#fff"/>
    </g>
    <g id="그룹_19" data-name="그룹 19">
      <path id="패스_69" data-name="패스 69" d="M98.5,110.7v2.7H120v-2.7H109.3V101h-3.5v9.7Z" fill="#fff"/>
      <path id="패스_70" data-name="패스 70" d="M114.5,108.1h2.3c.8-4.4,1.4-9.8,1.8-13.5.2-2,.2-3-1.6-3H100.8v2.7h13.7Z" fill="#fff"/>
    </g>
    <g id="그룹_20" data-name="그룹 20">
      <path id="패스_71" data-name="패스 71" d="M63.3,110.7v-4.6H59.5v4.6H50.6v2.7H72.1v-2.7Z" fill="#fff"/>
      <path id="패스_72" data-name="패스 72" d="M66.9,104.6a1.956,1.956,0,0,0,2.2-2.2v-11H65.2v4.5H57.5V91.4H53.6v11.1c0,1.3.5,2.2,2.2,2.2H66.9Zm-9.4-2.3V98.6h7.7v3.7Z" fill="#fff"/>
    </g>
    <g id="그룹_21" data-name="그룹 21">
      <path id="패스_73" data-name="패스 73" d="M94.5,100.2V90.8H77.1V98c0,1.3.5,2.2,2.2,2.2ZM81,93.5h9.7v3.9H81Z" fill="#fff"/>
      <path id="패스_74" data-name="패스 74" d="M81,107.1H77.1v5.2c0,1.3.5,2.2,2.2,2.2H94.6v-2.7H81Z" fill="#fff"/>
      <path id="패스_75" data-name="패스 75" d="M75.1,102.4v2.7h9v4.3H88v-4.3h8.5v-2.7Z" fill="#fff"/>
    </g>
  </g>
</svg>
