<svg xmlns="http://www.w3.org/2000/svg" width="169" height="58.074" viewBox="0 0 169 58.074">
  <g id="bg_pic1" transform="translate(-228.735 -231.779)">
    <path id="패스_110" data-name="패스 110" d="M493.835,340.094c-1.27,0-2.03-1.344-2.03-2.642v-5.784h53.287v5.784c0,1.3-.759,2.642-2.029,2.642Z" transform="translate(-147.356 -55.952)" fill="#fff"/>
    <path id="패스_111" data-name="패스 111" d="M460.031,289.853h1.9a2.062,2.062,0,0,0,1.58-.512c.1-.095,2.906-2.891,3.978-3.96a2.138,2.138,0,0,0,.8-1.8V233.809c0-1.27-1.343-2.03-2.641-2.03h-5.6Z" transform="translate(-129.558 0)" fill="#fff"/>
    <g id="그룹_35" data-name="그룹 35" transform="translate(228.735 231.779)">
      <path id="패스_112" data-name="패스 112" d="M247.983,263.736a15.979,15.979,0,1,1,15.98-15.978,15.866,15.866,0,0,1-15.98,15.978Zm0-23.581a7.6,7.6,0,1,0,5.377,2.226A7.612,7.612,0,0,0,247.985,240.155Z" transform="translate(-230.567 -231.779)" fill="#fff"/>
      <path id="패스_113" data-name="패스 113" d="M322.951,289.853h1.9a2.066,2.066,0,0,0,1.58-.512c.1-.095,2.9-2.891,3.976-3.96a2.138,2.138,0,0,0,.8-1.8V233.809c0-1.27-1.344-2.03-2.642-2.03h-5.6Z" transform="translate(-281.509 -231.779)" fill="#fff"/>
      <path id="패스_114" data-name="패스 114" d="M228.735,312.5v5.784c0,1.3.759,2.642,2.029,2.642h11.074l0,14.143h1.9a2.064,2.064,0,0,0,1.58-.512c.1-.095,2.906-2.891,3.977-3.96a2.14,2.14,0,0,0,.8-1.8v-7.874h13.927c1.271,0,2.03-1.343,2.03-2.642V312.5Z" transform="translate(-228.735 -276.994)" fill="#fff"/>
    </g>
    <path id="패스_115" data-name="패스 115" d="M535.1,254.74a2.129,2.129,0,0,0,.792-1.788v-12.92h7.8c1.271,0,2.03-1.344,2.03-2.642v-5.611H497.034v5.611c0,1.3.758,2.642,2.029,2.642h14.228a2.054,2.054,0,0,0-1.574.51c-.1.093-2.891,2.877-3.957,3.94a2.129,2.129,0,0,0-.792,1.788v12.92h-9.934v5.625c0,1.3.758,2.641,2.029,2.641h44.629c1.271,0,2.03-1.343,2.03-2.641v-5.625H529.57a2.058,2.058,0,0,0,1.574-.51C531.242,258.587,534.035,255.8,535.1,254.74Zm-19.919,4.45V240.032h12.5v19.158Z" transform="translate(-150.285 0)" fill="#fff"/>
    <path id="패스_116" data-name="패스 116" d="M397.206,231.779h-5.6l0,17.843h-6.187v-7.1a3.666,3.666,0,0,0-1.365-3.079c-1.836-1.832-6.644-6.625-6.816-6.787a3.546,3.546,0,0,0-2.709-.878H359.954v33.186a3.665,3.665,0,0,0,1.365,3.079c1.836,1.832,6.644,6.625,6.815,6.787a3.545,3.545,0,0,0,2.709.878h14.569V257.867H391.6l0,31.986h1.9a2.061,2.061,0,0,0,1.579-.512c.1-.095,2.906-2.891,3.978-3.96a2.138,2.138,0,0,0,.8-1.8V233.809C399.847,232.539,398.5,231.779,397.206,231.779Zm-29,35.678V240.032h8.95l.005,27.425Z" transform="translate(-73.501 0)" fill="#fff"/>
  </g>
</svg>
