<svg xmlns="http://www.w3.org/2000/svg" width="196.876" height="30.364" viewBox="0 0 196.876 30.364">
  <g id="bg_pic8" transform="translate(-32.151 -56.3)">
    <path id="패스_117" data-name="패스 117" d="M245.794,59.316V86.231a.324.324,0,0,1-.317.316h-8.45a.313.313,0,0,1-.282-.164l-9.277-17.108V86.231a.314.314,0,0,1-.309.316h-6.315a.327.327,0,0,1-.325-.316V59.316a.317.317,0,0,1,.325-.316h8.421a.325.325,0,0,1,.289.173l9.284,17.19V59.316a.3.3,0,0,1,.31-.316h6.328a.314.314,0,0,1,.317.316" transform="translate(-31.277 -0.448)" fill="#dd2830"/>
    <path id="패스_118" data-name="패스 118" d="M195.132,58.506c-12.429,0-14.861,9.2-14.861,14.2,0,5.022,2.432,14.216,14.861,14.216,12.41,0,14.834-9.194,14.834-14.216,0-5-2.424-14.2-14.834-14.2m0,22.382c-4.759,0-6.688-3.8-6.688-8.183s1.93-8.174,6.688-8.174c4.739,0,6.673,3.807,6.673,8.174s-1.935,8.183-6.673,8.183" transform="translate(-24.594 -0.366)" fill="#dd2830"/>
    <path id="패스_119" data-name="패스 119" d="M173.4,86.547H166.3a.315.315,0,0,1-.289-.316V59.325A.318.318,0,0,1,166.3,59H173.4a.35.35,0,0,1,.338.325V86.231a.349.349,0,0,1-.338.316" transform="translate(-22.226 -0.448)" fill="#dd2830"/>
    <path id="패스_120" data-name="패스 120" d="M157.964,59h-21a.243.243,0,0,0-.248.249v5.344a.243.243,0,0,0,.248.248h6.617V86.3a.247.247,0,0,0,.249.248H151.1a.242.242,0,0,0,.243-.248V64.84h6.624a.253.253,0,0,0,.248-.248V59.249a.253.253,0,0,0-.248-.249" transform="translate(-17.363 -0.448)" fill="#dd2830"/>
    <path id="패스_121" data-name="패스 121" d="M122.455,64.4c3.774,0,5.33.628,5.86.937a.167.167,0,0,0,.248-.132V59.465a.188.188,0,0,0-.1-.16,19.453,19.453,0,0,0-6.625-.957c-4.428,0-16.516,1.59-16.516,14.317s12.087,14.312,16.516,14.312a19.8,19.8,0,0,0,6.625-.95.189.189,0,0,0,.1-.167V80.131a.171.171,0,0,0-.248-.138c-.53.309-2.086.944-5.86.944-4.567,0-8.988-1.936-8.988-8.271s4.422-8.264,8.988-8.264" transform="translate(-12.149 -0.34)" fill="#dd2830"/>
    <path id="패스_122" data-name="패스 122" d="M87.949,59.082a.359.359,0,0,0-.372.359V75.583s.056,5.577-4.771,5.577c-4.78,0-4.732-5.577-4.732-5.577V59.441a.36.36,0,0,0-.372-.359H70.574a.358.358,0,0,0-.359.359V76.37c0,7.463,5.558,10.742,12.591,10.742,7.058,0,12.622-3.279,12.622-10.742V59.441a.355.355,0,0,0-.371-.359Z" transform="translate(-6.32 -0.462)" fill="#dd2830"/>
    <path id="패스_123" data-name="패스 123" d="M266.143,85.4a5.231,5.231,0,1,1-5.227-5.226,5.242,5.242,0,0,1,5.227,5.226" transform="translate(-37.116 -3.964)" fill="#dd2830"/>
    <path id="패스_124" data-name="패스 124" d="M52.05,56.3h-15.9a.266.266,0,0,0-.275.269v5.55a.27.27,0,0,0,.275.263h3.9l-7.872,23.5a.242.242,0,0,0,.234.344h7.513a.255.255,0,0,0,.256-.186L41.761,80.6H52.3l1.549,5.434a.264.264,0,0,0,.242.186h7.837a.283.283,0,0,0,.255-.344L52.3,56.471a.281.281,0,0,0-.249-.171M43.511,74.557l3.532-12.175,3.521,12.175Z" transform="translate(0 0)" fill="#dd2830"/>
  </g>
</svg>
