<svg xmlns="http://www.w3.org/2000/svg" width="205.087" height="49.006" viewBox="0 0 205.087 49.006">
  <g id="bg_pic2" transform="translate(-77.219 -64.542)">
    <g id="그룹_43" data-name="그룹 43" transform="translate(195.269 64.542)">
      <path id="패스_144" data-name="패스 144" d="M117.672,75.08s0-4.15,3.47-4.15,3,2.776,2.529,4.61c-.448,1.855-.914,9-.914,9s4.153-6.92,6-8.074,5.082-1.158,5.3,2.307c.24,3.467-.22,8.083.923,7.611s4.4-8.992,6.246-10.143S147,75.54,147,83.855s.217,10.621,1.146,11.3c.92.7,2.3,2.547.454,4.159s-6.7.46-6.7-4.619V85.241s-.677-1.852-2.078,1.618c-1.38,3.455-3.69,13.385-8.063,13.385-4.39,0-1.843-16.609-3.236-16.609s-4.387,8.763-5.073,11.3-1.17,6.005-3.69,6.005c-2.55,0-2.776-2.315-2.776-4.4C116.986,94.476,117.672,75.08,117.672,75.08Z" transform="translate(-116.986 -51.967)" fill="#f7b52d"/>
      <path id="패스_145" data-name="패스 145" d="M148.047,92.97c.19-1.576,3.411-23.558-7.849-22.843,0,0-8.5.787-11.275,14.765-2.731,13.991,3.951,17.336,6.32,17.336a8.993,8.993,0,0,0,7.478-3.746s.787-.594,1.38,0,2.17,3.357,4.135,2.957,4.53-2.752,2.948-4.337C149.629,95.526,147.845,94.544,148.047,92.97Zm-11.821,3.343C130.5,94.733,134.7,82.269,134.7,82.269s1.832-5.465,4.485-6.24c5.774-1.7,4.913,5.426,4.913,7.392S141.938,97.889,136.226,96.313Z" transform="translate(-94.756 -53.58)" fill="#f7b52d"/>
      <path id="패스_146" data-name="패스 146" d="M150.1,69.966c-2.149-7.288-6.688-5.907-9.051-2.562s-3.945,16.74-3.945,16.74-2.363,19.7,2.562,25.42,9.864,2.957,9.864.386-1.193-2.755-3.375-2.556c-2.143.193-1.757-5.919.214-9.654S152.26,77.257,150.1,69.966Zm-7.956,27.61c-1.965.778-.709-17.176,1.466-23.276,0,0,1.386-3.147,2.158-.389C146.558,76.654,144.111,96.784,142.14,97.576Z" transform="translate(-78.507 -64.26)" fill="#f7b52d"/>
      <path id="패스_147" data-name="패스 147" d="M155.123,79.9c.2-6.3.4-15.555-4.138-15.35-4.53.181-8.463,11.209-9.063,21.462,0,0-1.181,18.31,3.375,24.419,4.518,6.106,10.8,1.974,9.051-1.576-1.775-3.55-6.7.994-4.144-6.094S154.93,86.2,155.123,79.9Zm-7.858,17.526c-1.962.79-1-16.74,1.182-22.84,0,0,1.368-3.147,2.152-.389S149.228,96.635,147.266,97.422Z" transform="translate(-68.169 -64.542)" fill="#f7b52d"/>
    </g>
    <g id="그룹_44" data-name="그룹 44" transform="translate(77.219 82.493)">
      <path id="패스_148" data-name="패스 148" d="M167.738,100.7a16.933,16.933,0,0,1-4.248.623c-4.482,0-6.863-1.927-6.863-6.017V70.736h2.508c2.618,0,3.491,1.526,3.491,3.648v1.879h5.124v1.443c0,2.045-1.437,3.209-3.533,3.209h-1.591V94.253c0,1.461.484,2.5,2.562,2.5a9.644,9.644,0,0,0,2.55-.4V100.7M152.18,80.232a10.728,10.728,0,0,1,2.749.436V76.263a26.02,26.02,0,0,0-5.011-.582c-3.951,0-6.742,1.624-6.742,5.925V100.73h6V82.77C149.173,81.194,150.162,80.232,152.18,80.232Zm-34.387,2.381c0-2.461-1.38-6.908-9.386-6.908-4.106,0-5.756,1.078-6.332,1.466a11.985,11.985,0,0,0-6.347-1.466c-7.386,0-9.381,3.678-9.381,6.739V100.73h6.029V82.83c0-1.03.57-2.6,3.352-2.6,2.149,0,3.313,1.084,3.313,2.6v17.9h6.047V82.83c0-1.5,1.14-2.6,3.319-2.6,2.378,0,3.346,1.217,3.346,2.6V96.622c0,2.7,1.582,4.242,4.073,4.242h1.968Zm12.762-6.932c7.567,0,10.3,3.586,10.3,8.347v7.745c0,5.441-3.479,9.55-10.713,9.55-6.908,0-10.693-3.248-10.693-7.629,0-3.491,2.369-5.8,7.519-7.217.748-.2,3.256-.944,4.414-1.291,2.589-.745,3.438-1.345,3.438-2.467,0-1.187-1.443-2.488-4.393-2.488-3.521,0-4.616,2.185-4.655,3.749H120.3C120.3,79.134,123.192,75.682,130.554,75.682Zm-.885,21.085a4.951,4.951,0,0,0,5.15-5.207V88.621s-4.575,1.309-5.836,1.7c-2.277.692-3.387,1.861-3.387,3.381S126.841,96.767,129.67,96.767Z" transform="translate(-59.25 -70.3)" fill="#464c55"/>
      <path id="패스_149" data-name="패스 149" d="M89.185,101.583c-8.318,0-11.966-5.1-11.966-11.556V83.06c0-8.974,5.973-12.471,13-12.471,8.46,0,12.168,4.619,12.168,9.223,0,6.73-6.872,8.386-9.933,9.271-.858.252-4.1,1.223-4.809,1.416-2.838.825-3.654,1.746-3.654,2.787,0,1.781,1.55,3.334,5.192,3.334,3.17,0,5.5-1.081,5.884-4.4H101.7c-.686,5.236-3.847,9.363-12.512,9.363m.757-26c-3.69,0-6.106,2.455-6.106,6.658v4.405s4.984-1.46,7.065-2.09c1.751-.519,4.871-1.636,4.871-4.376C95.772,77.788,93.831,75.588,89.942,75.588Z" transform="translate(-77.219 -70.589)" fill="#f7b52d"/>
    </g>
  </g>
</svg>
