<svg xmlns="http://www.w3.org/2000/svg" width="208.627" height="51.494" viewBox="0 0 208.627 51.494">
  <g id="bg_pic7" transform="translate(-45.857 -46.936)">
    <path id="패스_125" data-name="패스 125" d="M200.382,93h7.489S196.623,79.6,196.131,79.03c.515-.538,10.984-11.522,10.984-11.522h-6.448l-8.325,8.622V67.508h-6.374V93h6.374v-9.58Z" fill="#fff"/>
    <path id="패스_126" data-name="패스 126" d="M129.513,67.508H110.772c-5.053,0-7.72,2.644-7.72,7.637V93h6.9V76.49c0-3.3.987-4.393,3.908-4.393h2.848V93h6.866V72.1H126.4c2.953,0,3.931,1.089,3.931,4.393V93h6.89V75.145c0-4.993-2.66-7.637-7.711-7.637" fill="#fff"/>
    <path id="패스_127" data-name="패스 127" d="M176.574,67.508c-5.76,0-8.323,2.368-8.323,7.637V93h6.888V75.8c0-2.714.995-3.706,3.67-3.706h4.611V67.508Z" fill="#fff"/>
    <path id="패스_128" data-name="패스 128" d="M163.715,93V75.145c0-5.269-2.55-7.637-8.339-7.637H142.365V72.1h10.8c2.675,0,3.66.992,3.66,3.706v.858h-9.1c-4.536,0-7.5,2.2-7.5,8.168S143.187,93,147.723,93Zm-13.862-4.543c-1.755,0-2.75-.582-2.75-3.632,0-3.034,1-3.639,2.75-3.639h6.971v7.271Z" fill="#fff"/>
    <path id="패스_129" data-name="패스 129" d="M215.246,67.508c-4.551,0-7.519,2.2-7.519,8.167V85.36c0,5.284,2.571,7.644,8.31,7.644h14.168V88.43H218.271c-2.674,0-3.66-1-3.66-3.706V83.41h9.1c4.536,0,7.526-1.989,7.526-7.943,0-5.971-2.99-7.959-7.526-7.959Zm6.314,4.543c1.748,0,2.742.359,2.742,3.416,0,3.033-.994,3.4-2.742,3.4h-6.949v-3.19h0c0-3.041.992-3.624,2.742-3.624Z" fill="#fff"/>
    <path id="패스_130" data-name="패스 130" d="M254.484,67.508H232.417v4.566h7.6V93h6.868V72.074h7.6Z" fill="#fff"/>
    <path id="패스_131" data-name="패스 131" d="M90.3,50.732c3.152,1.83,4.348,3.565,4.348,5.776A5.386,5.386,0,0,1,89.251,61.9c-1.914,0-3.11-.964-4.858-1.995a18.381,18.381,0,0,0-9.363-2.69c-8.736,0-16.41,5.842-16.41,15.811,0,8.355,7.159,15.17,15.789,15.17,5.537,0,8.5-1.428,10.134-2.316v-7.4H74.006V67.522H89.752c3.959,0,6.865,2.533,6.865,6.652h0V88c0,2.586-.484,3.618-2.742,5.036a36.444,36.444,0,0,1-19.765,5.4c-15.446,0-28.253-10.561-28.253-25.408,0-15.243,11.919-26.086,28.971-26.086a30.379,30.379,0,0,1,15.469,3.8" fill="#48ac4a"/>
    <path id="패스_132" data-name="패스 132" d="M79.416,73.008a5.481,5.481,0,1,1-5.485-5.486,5.471,5.471,0,0,1,5.485,5.486" fill="#fff"/>
  </g>
</svg>
