<svg xmlns="http://www.w3.org/2000/svg" xmlns:xlink="http://www.w3.org/1999/xlink" width="176.634" height="138.22" viewBox="0 0 176.634 138.22">
  <defs>
    <linearGradient id="linear-gradient" x1="0.655" y1="0.038" x2="0.464" y2="0.63" gradientUnits="objectBoundingBox">
      <stop offset="0" stop-color="#5a78ba"/>
      <stop offset="0.059" stop-color="#5173b6"/>
      <stop offset="0.27" stop-color="#3664ad"/>
      <stop offset="0.457" stop-color="#255ba7"/>
      <stop offset="0.6" stop-color="#2058a5"/>
    </linearGradient>
    <linearGradient id="linear-gradient-2" x1="0.138" y1="0.132" x2="0.748" y2="0.904" gradientUnits="objectBoundingBox">
      <stop offset="0" stop-color="#ea7db0"/>
      <stop offset="0.008" stop-color="#e97aae"/>
      <stop offset="0.154" stop-color="#e6559c"/>
      <stop offset="0.289" stop-color="#e33a8f"/>
      <stop offset="0.409" stop-color="#e22987"/>
      <stop offset="0.5" stop-color="#e22485"/>
    </linearGradient>
    <linearGradient id="linear-gradient-3" x1="0.926" y1="0.241" x2="0.194" y2="0.608" gradientUnits="objectBoundingBox">
      <stop offset="0" stop-color="#5a78ba"/>
      <stop offset="0.034" stop-color="#5173b6"/>
      <stop offset="0.157" stop-color="#3664ad"/>
      <stop offset="0.267" stop-color="#255ba7"/>
      <stop offset="0.35" stop-color="#2058a5"/>
    </linearGradient>
    <linearGradient id="linear-gradient-4" x1="0.136" y1="-0.264" x2="0.697" y2="0.686" gradientUnits="objectBoundingBox">
      <stop offset="0" stop-color="#ffc979"/>
      <stop offset="0.094" stop-color="#ffbc56"/>
      <stop offset="0.214" stop-color="#ffae31"/>
      <stop offset="0.326" stop-color="#ffa516"/>
      <stop offset="0.425" stop-color="#ff9f05"/>
      <stop offset="0.5" stop-color="#ff9d00"/>
    </linearGradient>
  </defs>
  <g id="bg_pic4" transform="translate(-409.128 -264.066)">
    <path id="패스_46" data-name="패스 46" d="M460.545,311.36h-5.3v19.146h5.3v-8.467h5.435v-3.816h-5.435Zm-18.629,32.053v-.453h18.629v-10.2h-24.1v3.605h18.72v3.076H436.535V342c0,5.992,3.253,7.853,8.149,7.853h16.1v-3.6H444.7C442.451,346.255,441.915,345.394,441.915,343.413Zm8.052-22.605c0-5.06-4.489-9.163-10.031-9.163s-10.019,4.1-10.019,9.163,4.489,9.165,10.019,9.165S449.967,325.869,449.967,320.807Zm-15.1,0a5.09,5.09,0,1,1,5.068,5.513A5.306,5.306,0,0,1,434.867,320.807Zm97.908,9.07v9.15h5.25V311.36h-5.25v14.769c-2.557,2.564-8.031,3.552-11.764,3.552-3.43,0-6.222-1.294-6.222-5.043V317h12.526V313.27H509.457v10.843c0,7.615,4.685,9.277,11.233,9.277C524.481,333.39,529.482,332.437,532.775,329.877Zm-9.747,16.249c-2.323,0-3.582-1.2-3.582-3.491l-.008-5.463h-5.374v4.246c0,5.971,3.447,8.433,9.936,8.433h14.322v-3.725ZM498.89,311.36h-5.3V332.6c-2.865,2.336-6.869,3.641-11.92,3.521-3.439-.08-6.23-1.45-6.23-5.8v-2.205h12.275V313.658H470.061v3.73h12.365v7.048H470.061v4.491c0,8.229,4.467,10.9,11.242,10.9,4.765.008,9.875-1.453,12.292-3.489V349.87h5.3v-23.2h5.435v-3.989H498.89Z" transform="translate(23.041 52.416)" fill="#2058a5"/>
    <g id="그룹_14" data-name="그룹 14" transform="translate(409.128 264.066)">
      <path id="패스_47" data-name="패스 47" d="M409.128,284.45c22.125-3.2,42.483,3.884,57.439,11.336a124.74,124.74,0,0,0-9.949-16.552C444.158,277.26,416.313,271.937,409.128,284.45Z" transform="translate(-409.128 -250.387)" fill="#ff9d00"/>
      <path id="패스_48" data-name="패스 48" d="M481.745,316.281c-.238-.749-.481-1.5-.725-2.252-.192-.576-.39-1.155-.592-1.733-.234-.677-.458-1.356-.7-2.039-.2-.554-.4-1.1-.605-1.657-.312-.858-.626-1.712-.951-2.566-.108-.264-.223-.525-.325-.791a25.8,25.8,0,0,1-5.766-1.035c-4.862-1.438-9.277-4.206-14.4-7.4l-2.973-1.847c-4.95-3.042-10.331-6.272-16.915-9.553-.677-.337-1.351-.654-2.03-.976.432.818.877,1.632,1.284,2.46,6.835,3.4,12.547,6.879,16.788,9.481,5.288,3.249,9.85,6.319,14.668,8.3-3.854,3.439-8.018,8.929-8.8,10.866a1.558,1.558,0,0,0-.316.877c0,2.821,10.373,5.222,20.263,5.222,1.227,0,2.458-.04,3.69-.1q-.538-1.885-1.115-3.761C482.068,317.278,481.9,316.781,481.745,316.281Z" transform="translate(-379.608 -241.494)" fill="#2058a5"/>
      <path id="패스_49" data-name="패스 49" d="M460.157,279.276l1.448-.306-.139.036c.276-.055.584-.129.907-.2-.426-.47-.812-.959-1.235-1.423l-1.313.266c-9.983,2.032-14.48,2.412-23.048,1.128a41.108,41.108,0,0,1-5.123-.618c.445.618.85,1.248,1.282,1.874a32.033,32.033,0,0,0,3.673.394C445.435,281.743,450.242,281.294,460.157,279.276Z" transform="translate(-384.163 -249.31)" fill="#2058a5"/>
      <path id="패스_50" data-name="패스 50" d="M475.541,293.892c-6.1,3.635-11.859,7.065-19.1,6.865-.238-.006-.472-.029-.708-.042.095.266.2.527.306.791.112.3.242.6.358.909l-.013-.01c.207.559.4,1.117.605,1.668s.407,1.1.605,1.657c.242.683.466,1.362.7,2.039.2.578.4,1.157.592,1.733.245.748.487,1.5.725,2.252.156.5.323,1,.474,1.5q.579,1.875,1.115,3.761c8.623-.5,16.578-2.652,16.578-5.119a1.5,1.5,0,0,0-.321-.877c-.812-2.007-5.214-7.8-9.215-11.237a85.877,85.877,0,0,0,8.161-4.465c1.339-.793,5.678-3.12,10.468-5.585-.415-.409-.856-.807-1.273-1.208C480.993,290.9,476.894,293.087,475.541,293.892Z" transform="translate(-357.475 -236.964)" fill="#e22485"/>
      <path id="패스_51" data-name="패스 51" d="M461.824,276.649l1.231-.443c-.6-.371-1.176-.759-1.782-1.122a151.731,151.731,0,0,1-15.635,4.841c.424.464.818.953,1.235,1.423C449.973,280.628,454.98,279.055,461.824,276.649Z" transform="translate(-368.664 -251.854)" fill="#e22485"/>
      <path id="패스_52" data-name="패스 52" d="M502.6,266.914c-7.223-3.957-17.109-4.444-23.5,2.783-4.64,5.256-5.163,12.458-1.815,17.647,3.373,5.212,9.2,7.531,15.669,5.773,5.617-1.533,8.714-8.467,5.1-13.152-1.94-2.5-6.044-3.633-8.731-1.693a3.225,3.225,0,0,0-1.271,4.048,2.583,2.583,0,0,0,2.309,1.419,3.841,3.841,0,0,0,1.36-.365c2.359-.839,3.422,2.794,1.474,3.873a4.575,4.575,0,0,1-1.248.517,8.949,8.949,0,0,1-10.071-3.542c-2.1-3.262-1.124-7.953,1.33-10.725,3.928-4.436,11.117-4.2,15.968-1.238s8.705,9.152,5.032,17.659c-2.945,6.841-11.712,8.817-20.356,8.834a41.209,41.209,0,0,1-4.495-.266c.947.609,1.881,1.257,2.823,1.879.578.029,1.141.048,1.672.048,11.556-.027,19.12-3.422,21.886-9.827,4.086-9.5-.268-16.422-5.7-19.749-5.241-3.209-13.371-3.749-18.072,1.564-2.722,3.063-4.168,8.566-1.486,12.719a10.663,10.663,0,0,0,11.9,4.244,6.4,6.4,0,0,0,1.644-.687,3.63,3.63,0,0,0,1.841-3.247,4.246,4.246,0,0,0-.371-1.748,3.373,3.373,0,0,0-4.333-1.87l-.325.116a1.743,1.743,0,0,1-.479.148.929.929,0,0,1-.835-.521c-.415-.795.32-1.615.77-1.94,1.94-1.4,5.056-.42,6.437,1.366a6,6,0,0,1,.86,5.678,7.549,7.549,0,0,1-5.068,4.851c-5.633,1.531-10.8-.356-13.837-5.064-3.021-4.685-2.342-11.119,1.655-15.648,5.836-6.6,14.986-5.977,21.467-2.431a18.518,18.518,0,0,1,7.419,23.834,19.63,19.63,0,0,1-10.289,9.909,66.09,66.09,0,0,1-8.511,2.68l-1.134.3c-.065.019-.148.038-.217.059.576.422,1.176.826,1.763,1.254a66.636,66.636,0,0,0,8.724-2.751,21.319,21.319,0,0,0,11.185-10.792A20.243,20.243,0,0,0,502.6,266.914Z" transform="translate(-335.966 -264.066)" fill="#2058a5"/>
      <path id="패스_53" data-name="패스 53" d="M493.158,284a62.661,62.661,0,0,0-8.368,2.711c-3.633,1.526-11.263,5.431-14.379,7.048-.173.093-.344.173-.512.266.417.4.858.8,1.273,1.208,5.393-2.787,11.353-5.77,14.265-7a79.4,79.4,0,0,1,11.216-3.434c-.586-.428-1.187-.833-1.763-1.254C494.309,283.7,493.738,283.848,493.158,284Z" transform="translate(-341.775 -242.471)" fill="#ff9d00"/>
      <path id="패스_54" data-name="패스 54" d="M460.02,275.666c8.421,3.489,29.08,11.971,43.646,13.575.7.082,1.366.129,2.024.183.327.023.647.036.972.051-.942-.622-1.876-1.269-2.823-1.878-14.035-1.552-33.7-9.525-43.773-13.706-1.8.656-4.29,1.56-7.012,2.517.605.363,1.185.751,1.782,1.122C456.495,276.933,459.311,275.926,460.02,275.666Z" transform="translate(-360.444 -253.178)" fill="#ff9d00"/>
      <path id="패스_55" data-name="패스 55" d="M458.59,302.03l2.973,1.847c5.123,3.194,9.538,5.962,14.4,7.4a25.8,25.8,0,0,0,5.766,1.035c-.228-.6-.479-1.189-.717-1.781-.462-1.153-.936-2.3-1.434-3.441-.2-.466-.415-.934-.626-1.4-.489-1.109-.989-2.212-1.512-3.3-.247-.517-.506-1.031-.761-1.541-.51-1.029-1.02-2.058-1.56-3.078-.3-.576-.626-1.145-.936-1.716-.514-.938-1.029-1.874-1.564-2.791-.382-.651-.786-1.288-1.176-1.929-.5-.824-1.01-1.655-1.533-2.46-.481-.742-.989-1.455-1.482-2.18-.483-.694-.942-1.4-1.442-2.077-.624-.864-1.292-1.7-1.954-2.545-.392-.506-.778-1.037-1.191-1.535-.692-.85-1.421-1.661-2.14-2.477-.323.074-.63.148-.907.2l.139-.036-1.448.306c-9.915,2.018-14.722,2.467-23.55,1.149a32.033,32.033,0,0,1-3.673-.394,124.109,124.109,0,0,1,7.383,12.218c.679.323,1.354.639,2.03.976C448.259,295.757,453.639,298.987,458.59,302.03Z" transform="translate(-383.489 -248.561)" fill="url(#linear-gradient)"/>
      <path id="패스_56" data-name="패스 56" d="M461.174,276.06c-6.844,2.406-11.851,3.978-14.95,4.7.723.816,1.453,1.628,2.14,2.477.413.5.8,1.029,1.191,1.535.662.845,1.33,1.678,1.954,2.545.5.681.959,1.383,1.442,2.077.493.725,1,1.438,1.482,2.18.527.805,1.029,1.636,1.533,2.46.39.641.795,1.273,1.176,1.929.536.917,1.05,1.853,1.564,2.791.31.571.639,1.141.936,1.716.54,1.02,1.05,2.049,1.56,3.078.255.51.514,1.025.761,1.541.523,1.088,1.023,2.191,1.512,3.3.211.47.424.938.626,1.4.5,1.143.972,2.288,1.434,3.441.122.3.255.6.377.9h.021c.112.287.232.586.337.883.236.013.47.036.708.042,7.24.2,13-3.23,19.1-6.865,1.354-.805,5.452-2.992,10.059-5.372-10.62-10.069-21.4-19.555-33.733-27.2Z" transform="translate(-368.014 -251.265)" fill="url(#linear-gradient-2)"/>
      <path id="패스_57" data-name="패스 57" d="M488.419,304.2l1.134-.3a66.1,66.1,0,0,0,8.511-2.68,19.63,19.63,0,0,0,10.289-9.909,18.518,18.518,0,0,0-7.419-23.834c-6.481-3.546-15.631-4.166-21.467,2.431-4,4.529-4.676,10.963-1.655,15.648,3.036,4.708,8.2,6.595,13.837,5.064a7.549,7.549,0,0,0,5.068-4.851,6,6,0,0,0-.86-5.678c-1.381-1.786-4.5-2.77-6.437-1.366-.449.325-1.185,1.145-.77,1.94a.929.929,0,0,0,.835.521,1.743,1.743,0,0,0,.479-.148l.325-.116a3.373,3.373,0,0,1,4.333,1.87,4.246,4.246,0,0,1,.371,1.748,3.63,3.63,0,0,1-1.841,3.247,6.4,6.4,0,0,1-1.644.687,10.663,10.663,0,0,1-11.9-4.244c-2.682-4.153-1.235-9.656,1.486-12.719,4.7-5.313,12.831-4.773,18.072-1.564,5.431,3.327,9.785,10.253,5.7,19.749-2.766,6.405-10.331,9.8-21.886,9.827-.531,0-1.094-.019-1.672-.048,2.323,1.556,4.621,3.139,6.9,4.782C488.271,304.24,488.353,304.221,488.419,304.2Z" transform="translate(-335.085 -263.181)" fill="url(#linear-gradient-3)"/>
      <path id="패스_58" data-name="패스 58" d="M484.157,286.542c.58-.154,1.151-.306,1.733-.451-2.277-1.642-4.575-3.226-6.9-4.782-.325-.015-.645-.027-.972-.051Q481.053,283.931,484.157,286.542Z" transform="translate(-332.774 -245.012)" fill="#ff9d00"/>
      <path id="패스_59" data-name="패스 59" d="M505.725,288.542c-.325-.015-.645-.027-.972-.051-.658-.055-1.328-.1-2.024-.183-14.566-1.6-35.226-10.086-43.646-13.575-.708.259-3.525,1.267-5.184,1.864,12.334,7.649,23.113,17.134,33.733,27.2.169-.093.339-.173.512-.266,3.116-1.617,10.746-5.522,14.379-7.048a62.649,62.649,0,0,1,8.368-2.711c.58-.154,1.151-.306,1.733-.451C510.347,291.682,508.049,290.1,505.725,288.542Z" transform="translate(-359.508 -252.244)" fill="url(#linear-gradient-4)"/>
      <path id="패스_60" data-name="패스 60" d="M458.6,267.509a4.226,4.226,0,0,0-4.229,4.229c0,4.609,3.335,8.34,4.229,9.226.89-.885,4.229-4.617,4.229-9.226A4.23,4.23,0,0,0,458.6,267.509Z" transform="translate(-358.981 -260.251)" fill="#ff9d00"/>
    </g>
  </g>
</svg>
