<svg xmlns="http://www.w3.org/2000/svg" width="190.762" height="46.598" viewBox="0 0 190.762 46.598">
  <g id="bg_pic6" transform="translate(-77.2 -62.647)">
    <path id="패스_105" data-name="패스 105" d="M134.057,62.647A23.3,23.3,0,1,0,157.365,85.94,23.292,23.292,0,0,0,134.057,62.647Zm0,34.729A11.43,11.43,0,1,1,145.519,85.94,11.453,11.453,0,0,1,134.057,97.376Z" transform="translate(61.31 0)" fill="#e95506"/>
    <path id="패스_106" data-name="패스 106" d="M120.245,63.73H78.483c-1.283,0-1.283.777-1.283.777a.926.926,0,0,0,.529.811,4.236,4.236,0,0,1,2.623,3.833v4.9A1.558,1.558,0,0,0,81.889,75.6H93.616a1.511,1.511,0,0,1,1.532,1.521v25.563a1.529,1.529,0,0,0,1.523,1.529h8.807a1.559,1.559,0,0,0,1.543-1.529V77.122a1.506,1.506,0,0,1,1.5-1.521h11.722a1.55,1.55,0,0,0,1.546-1.546v-8.8A1.536,1.536,0,0,0,120.245,63.73Z" transform="translate(0 1.978)" fill="#414549"/>
    <path id="패스_107" data-name="패스 107" d="M172.969,102.609a4.282,4.282,0,0,1-2.634-3.858V65.259a1.525,1.525,0,0,0-1.521-1.529h-8.8a1.522,1.522,0,0,0-1.523,1.529V83.99c0,.851-.43.986-.955.328l-15.58-19.393a3.664,3.664,0,0,0-2.5-1.2h-9.033a1.518,1.518,0,0,0-1.515,1.529v37.426a1.519,1.519,0,0,0,1.515,1.523h8.807a1.533,1.533,0,0,0,1.538-1.523V83.931c0-.837.444-.986.972-.328l15.775,19.424a3.723,3.723,0,0,0,2.5,1.187h12.213c1.278,0,1.278-.769,1.278-.769A.916.916,0,0,0,172.969,102.609Z" transform="translate(94.452 1.978)" fill="#414549"/>
    <path id="패스_108" data-name="패스 108" d="M147.181,102.4a4.313,4.313,0,0,1-2.145-3.089l-8.889-34.1c-.2-.806-.856-1.464-1.425-1.464,0,0-.9-.192-1.933,1.241L120.535,82.359a1.01,1.01,0,0,1-1.769,0l-12.25-17.377c-1.037-1.433-1.916-1.241-1.916-1.241-.6,0-1.249.659-1.442,1.464l-8.878,34.1a4.333,4.333,0,0,1-2.157,3.089c-.828.4-.814,1-.814,1s-.042.814.709.814h11.3a2.069,2.069,0,0,0,1.911-1.47l3.3-12.617c.206-.806.774-.924,1.261-.223l8.971,12.75a1.01,1.01,0,0,0,1.769,0L129.5,89.9c.5-.7,1.066-.582,1.266.223l3.293,12.617a2.093,2.093,0,0,0,1.919,1.47h11.289c.76,0,.715-.814.715-.814S148.023,102.8,147.181,102.4Z" transform="translate(25.77 1.982)" fill="#414549"/>
    <path id="패스_109" data-name="패스 109" d="M129.183,74.873a6.182,6.182,0,1,1-6.165-6.167A6.161,6.161,0,0,1,129.183,74.873Z" transform="translate(72.366 11.067)" fill="#414549"/>
  </g>
</svg>
