<svg xmlns="http://www.w3.org/2000/svg" width="10.142" height="9.998" viewBox="0 0 10.142 9.998">
  <path id="detail_arrow" d="M13.651,19.137a.413.413,0,0,1,0-.543L17.6,14.643H9.14a.39.39,0,1,1,0-.78H17.6L13.651,9.911a.367.367,0,0,1-.1-.271.428.428,0,0,1,.1-.288.413.413,0,0,1,.543,0l4.545,4.562a.375.375,0,0,1,.119.153.5.5,0,0,1,.034.187.521.521,0,0,1-.034.178.364.364,0,0,1-.119.161l-4.545,4.562a.341.341,0,0,1-.271.093A.4.4,0,0,1,13.651,19.137Z" transform="translate(-8.75 -9.25)" fill="#999"/>
</svg>
