<svg xmlns="http://www.w3.org/2000/svg" width="20.015" height="29.753" viewBox="0 0 20.015 29.753">
  <path id="scroll" d="M21.007,34.1A9.86,9.86,0,0,1,11,24.1V14.357A9.86,9.86,0,0,1,21.007,4.35,9.86,9.86,0,0,1,31.015,14.357V24.1A9.86,9.86,0,0,1,21.007,34.1Zm.885-19.745h7.39a8.138,8.138,0,0,0-2.1-5.543,7.8,7.8,0,0,0-5.292-2.694Zm-9.161,0h7.39V6.121A7.8,7.8,0,0,0,14.83,8.815a8.138,8.138,0,0,0-2.1,5.543Zm8.275,18.013A8.279,8.279,0,0,0,29.283,24.1V16.089H12.732V24.1a8.279,8.279,0,0,0,8.275,8.275ZM21.007,16.089ZM21.893,14.357ZM20.122,14.357ZM21.007,16.089Z" transform="translate(-11 -4.35)" fill="#fff"/>
</svg>
