<svg xmlns="http://www.w3.org/2000/svg" width="50" height="50" viewBox="0 0 50 50">
  <g id="sns_kakao" transform="translate(0.38 0.2)">
    <path id="패스_25" data-name="패스 25" d="M45.592,49.8H3.648A4.039,4.039,0,0,1-.38,45.772V3.828A4.04,4.04,0,0,1,3.648-.2H45.592A4.039,4.039,0,0,1,49.62,3.828V45.772A4.039,4.039,0,0,1,45.592,49.8Z" transform="translate(0 0)" fill="#fff"/>
    <path id="패스_26" data-name="패스 26" d="M74.74,77.39c-10.847,0-19.64,7-19.64,15.63,0,5.619,3.726,10.543,9.317,13.3-.411,1.545-1.488,5.594-1.7,6.46-.266,1.075.392,1.061.822.771.338-.226,5.382-3.678,7.559-5.168a24.712,24.712,0,0,0,3.646.269c10.847,0,19.64-7,19.64-15.63S85.588,77.39,74.74,77.39" transform="translate(-50.261 -70.291)" fill="#1d1d1d"/>
    <g id="그룹_6" data-name="그룹 6" transform="translate(10.937 18.453)">
      <path id="패스_27" data-name="패스 27" d="M110.614,185.05H105.3a.9.9,0,1,0,0,1.806h1.726v6.361a.883.883,0,0,0,.881.882h.193a.883.883,0,0,0,.88-.882v-6.361h1.63a.9.9,0,1,0,0-1.806Z" transform="translate(-104.4 -184.922)" fill="#fff"/>
      <path id="패스_28" data-name="패스 28" d="M263.468,191.177H261v-6.5a.979.979,0,1,0-1.959,0v7a.958.958,0,0,0,.015.157.862.862,0,0,0-.015.156.819.819,0,0,0,.819.82h3.609a.82.82,0,0,0,0-1.64Z" transform="translate(-244.492 -183.699)" fill="#fff"/>
      <path id="패스_29" data-name="패스 29" d="M327.173,191.475l-2.752-3.614,2.486-2.487a.862.862,0,0,0-1.22-1.219l-3.078,3.078V184.68a.98.98,0,1,0-1.96,0V191.9a.98.98,0,1,0,1.96,0v-2.227l.56-.559,2.6,3.416a.876.876,0,1,0,1.4-1.054Z" transform="translate(-300.306 -183.699)" fill="#fff"/>
      <path id="패스_30" data-name="패스 30" d="M175.314,191.7l-2.646-7.24-.008-.008a1.3,1.3,0,0,0-1.24-.762,1.264,1.264,0,0,0-1.287.912c-.018.039-.036.077-.051.119l-2.6,6.98a.878.878,0,1,0,1.656.582l.451-1.285h3.622l.45,1.285a.878.878,0,0,0,1.657-.582Zm-5.154-2.343,1.217-3.473c.014,0,.025,0,.04,0l1.216,3.47Z" transform="translate(-161.5 -183.69)" fill="#fff"/>
    </g>
  </g>
</svg>
