<svg xmlns="http://www.w3.org/2000/svg" width="50" height="50.002" viewBox="0 0 50 50.002">
  <g id="sns_blog" transform="translate(-104.04 -269.14)">
    <path id="패스_15" data-name="패스 15" d="M154.04,309.142a10,10,0,0,1-10,10h-30a10,10,0,0,1-10-10v-30a10,10,0,0,1,10-10h30a10,10,0,0,1,10,10Z" fill="#fff"/>
    <path id="패스_16" data-name="패스 16" d="M157.3,288.29H128.646c-3.654,0-6.616,3.428-6.616,7.658v18.168c0,4.23,2.962,7.658,6.616,7.658h9.872l3.369,6.326a1.717,1.717,0,0,0,.109.18,1.059,1.059,0,0,0,1.954.007.958.958,0,0,0,.113-.189l3.369-6.326H157.3c3.654,0,6.616-3.428,6.616-7.658V295.946C163.921,291.718,160.959,288.29,157.3,288.29Z" transform="translate(-13.935 -14.834)" fill="#1d1d1d"/>
    <g id="그룹_4" data-name="그룹 4" transform="translate(110.137 280.705)">
      <g id="그룹_3" data-name="그룹 3">
        <path id="패스_17" data-name="패스 17" d="M150.824,335.235a3.93,3.93,0,0,0-2.515,1.165v-4.69H145.35v12.324h2.989v-.965a2.837,2.837,0,0,0,2.484,1.273,4.359,4.359,0,0,0,4.17-4.6S154.841,335.235,150.824,335.235Zm-.651,6.5a1.9,1.9,0,1,1,1.9-1.9A1.9,1.9,0,0,1,150.173,341.739Z" transform="translate(-145.35 -331.433)" fill="#fff"/>
        <path id="패스_18" data-name="패스 18" d="M192.35,330.48v2.851s1.35-.061,1.35,2.452v7.3h2.851v-7.969S196.673,330.48,192.35,330.48Z" transform="translate(-181.757 -330.48)" fill="#fff"/>
        <path id="패스_19" data-name="패스 19" d="M225.127,347.52s-4.888,0-4.888,4.564c0,0-.158,4.5,4.888,4.5,0,0,5-.007,5-4.5C230.125,352.086,230.288,347.52,225.127,347.52Zm0,6.466a1.9,1.9,0,1,1,1.9-1.9A1.9,1.9,0,0,1,225.127,353.986Z" transform="translate(-203.359 -343.68)" fill="#fff"/>
        <path id="패스_20" data-name="패스 20" d="M277.417,347.817v.827a3.231,3.231,0,0,0-2.481-1.127s-4.185-.176-4.185,4.532c0,0-.047,4.388,4.07,4.388a3.383,3.383,0,0,0,2.6-1.127V356s.207,2.161-1.884,2.161h-.712v2.621h1.149a4.294,4.294,0,0,0,4.323-4.62v-8.346Zm-1.769,6.166a1.9,1.9,0,1,1,1.9-1.9A1.9,1.9,0,0,1,275.647,353.983Z" transform="translate(-242.487 -343.677)" fill="#fff"/>
      </g>
    </g>
  </g>
</svg>
